<mxfile host="Electron" modified="2023-05-16T21:38:01.069Z" agent="Mozilla/5.0 (Macintosh; Intel Mac OS X 10_15_7) AppleWebKit/537.36 (KHTML, like Gecko) draw.io/21.2.8 Chrome/112.0.5615.165 Electron/24.2.0 Safari/537.36" etag="FccfVdiwMbSun2R91wHH" version="21.2.8" type="device">
  <diagram id="R2lEEEUBdFMjLlhIrx00" name="Page-1">
    <mxGraphModel dx="1433" dy="1861" grid="1" gridSize="10" guides="1" tooltips="1" connect="1" arrows="1" fold="1" page="1" pageScale="1" pageWidth="1100" pageHeight="850" math="0" shadow="0" extFonts="Permanent Marker^https://fonts.googleapis.com/css?family=Permanent+Marker">
      <root>
        <mxCell id="0" />
        <mxCell id="1" parent="0" />
        <mxCell id="C-vyLk0tnHw3VtMMgP7b-13" value="fortinet-hugo (Container)" style="shape=table;startSize=30;container=1;collapsible=1;childLayout=tableLayout;fixedRows=1;rowLines=0;fontStyle=1;align=center;resizeLast=1;" parent="1" vertex="1">
          <mxGeometry x="690" y="320" width="350" height="400" as="geometry" />
        </mxCell>
        <mxCell id="C-vyLk0tnHw3VtMMgP7b-14" value="" style="shape=partialRectangle;collapsible=0;dropTarget=0;pointerEvents=0;fillColor=none;points=[[0,0.5],[1,0.5]];portConstraint=eastwest;top=0;left=0;right=0;bottom=1;" parent="C-vyLk0tnHw3VtMMgP7b-13" vertex="1">
          <mxGeometry y="30" width="350" height="20" as="geometry" />
        </mxCell>
        <mxCell id="C-vyLk0tnHw3VtMMgP7b-15" value="x" style="shape=partialRectangle;overflow=hidden;connectable=0;fillColor=none;top=0;left=0;bottom=0;right=0;fontStyle=1;" parent="C-vyLk0tnHw3VtMMgP7b-14" vertex="1">
          <mxGeometry width="30" height="20" as="geometry">
            <mxRectangle width="30" height="20" as="alternateBounds" />
          </mxGeometry>
        </mxCell>
        <mxCell id="C-vyLk0tnHw3VtMMgP7b-16" value="hugo" style="shape=partialRectangle;overflow=hidden;connectable=0;fillColor=none;top=0;left=0;bottom=0;right=0;align=left;spacingLeft=6;fontStyle=5;" parent="C-vyLk0tnHw3VtMMgP7b-14" vertex="1">
          <mxGeometry x="30" width="320" height="20" as="geometry">
            <mxRectangle width="320" height="20" as="alternateBounds" />
          </mxGeometry>
        </mxCell>
        <mxCell id="uD4EJLXwcY8p-qaZ7sZ1-4" value="" style="shape=partialRectangle;collapsible=0;dropTarget=0;pointerEvents=0;fillColor=none;points=[[0,0.5],[1,0.5]];portConstraint=eastwest;top=0;left=0;right=0;bottom=1;" vertex="1" parent="C-vyLk0tnHw3VtMMgP7b-13">
          <mxGeometry y="50" width="350" height="30" as="geometry" />
        </mxCell>
        <mxCell id="uD4EJLXwcY8p-qaZ7sZ1-5" value="d" style="shape=partialRectangle;overflow=hidden;connectable=0;fillColor=none;top=0;left=0;bottom=0;right=0;fontStyle=1;" vertex="1" parent="uD4EJLXwcY8p-qaZ7sZ1-4">
          <mxGeometry width="30" height="30" as="geometry">
            <mxRectangle width="30" height="30" as="alternateBounds" />
          </mxGeometry>
        </mxCell>
        <mxCell id="uD4EJLXwcY8p-qaZ7sZ1-6" value="CentralRepo" style="shape=partialRectangle;overflow=hidden;connectable=0;fillColor=none;top=0;left=0;bottom=0;right=0;align=left;spacingLeft=6;fontStyle=5;" vertex="1" parent="uD4EJLXwcY8p-qaZ7sZ1-4">
          <mxGeometry x="30" width="320" height="30" as="geometry">
            <mxRectangle width="320" height="30" as="alternateBounds" />
          </mxGeometry>
        </mxCell>
        <mxCell id="C-vyLk0tnHw3VtMMgP7b-6" value="" style="shape=partialRectangle;collapsible=0;dropTarget=0;pointerEvents=0;fillColor=none;points=[[0,0.5],[1,0.5]];portConstraint=eastwest;top=0;left=0;right=0;bottom=0;" parent="C-vyLk0tnHw3VtMMgP7b-13" vertex="1">
          <mxGeometry y="80" width="350" height="30" as="geometry" />
        </mxCell>
        <mxCell id="C-vyLk0tnHw3VtMMgP7b-7" value="d" style="shape=partialRectangle;overflow=hidden;connectable=0;fillColor=none;top=0;left=0;bottom=0;right=0;" parent="C-vyLk0tnHw3VtMMgP7b-6" vertex="1">
          <mxGeometry width="30" height="30" as="geometry">
            <mxRectangle width="30" height="30" as="alternateBounds" />
          </mxGeometry>
        </mxCell>
        <mxCell id="C-vyLk0tnHw3VtMMgP7b-8" value="/layouts" style="shape=partialRectangle;overflow=hidden;connectable=0;fillColor=none;top=0;left=0;bottom=0;right=0;align=left;spacingLeft=6;" parent="C-vyLk0tnHw3VtMMgP7b-6" vertex="1">
          <mxGeometry x="30" width="320" height="30" as="geometry">
            <mxRectangle width="320" height="30" as="alternateBounds" />
          </mxGeometry>
        </mxCell>
        <mxCell id="C-vyLk0tnHw3VtMMgP7b-9" value="" style="shape=partialRectangle;collapsible=0;dropTarget=0;pointerEvents=0;fillColor=none;points=[[0,0.5],[1,0.5]];portConstraint=eastwest;top=0;left=0;right=0;bottom=0;" parent="C-vyLk0tnHw3VtMMgP7b-13" vertex="1">
          <mxGeometry y="110" width="350" height="30" as="geometry" />
        </mxCell>
        <mxCell id="C-vyLk0tnHw3VtMMgP7b-10" value="d" style="shape=partialRectangle;overflow=hidden;connectable=0;fillColor=none;top=0;left=0;bottom=0;right=0;" parent="C-vyLk0tnHw3VtMMgP7b-9" vertex="1">
          <mxGeometry width="30" height="30" as="geometry">
            <mxRectangle width="30" height="30" as="alternateBounds" />
          </mxGeometry>
        </mxCell>
        <mxCell id="C-vyLk0tnHw3VtMMgP7b-11" value="/static" style="shape=partialRectangle;overflow=hidden;connectable=0;fillColor=none;top=0;left=0;bottom=0;right=0;align=left;spacingLeft=6;" parent="C-vyLk0tnHw3VtMMgP7b-9" vertex="1">
          <mxGeometry x="30" width="320" height="30" as="geometry">
            <mxRectangle width="320" height="30" as="alternateBounds" />
          </mxGeometry>
        </mxCell>
        <mxCell id="uD4EJLXwcY8p-qaZ7sZ1-16" value="" style="shape=partialRectangle;collapsible=0;dropTarget=0;pointerEvents=0;fillColor=none;points=[[0,0.5],[1,0.5]];portConstraint=eastwest;top=0;left=0;right=0;bottom=0;" vertex="1" parent="C-vyLk0tnHw3VtMMgP7b-13">
          <mxGeometry y="140" width="350" height="30" as="geometry" />
        </mxCell>
        <mxCell id="uD4EJLXwcY8p-qaZ7sZ1-17" value="d" style="shape=partialRectangle;overflow=hidden;connectable=0;fillColor=none;top=0;left=0;bottom=0;right=0;" vertex="1" parent="uD4EJLXwcY8p-qaZ7sZ1-16">
          <mxGeometry width="30" height="30" as="geometry">
            <mxRectangle width="30" height="30" as="alternateBounds" />
          </mxGeometry>
        </mxCell>
        <mxCell id="uD4EJLXwcY8p-qaZ7sZ1-18" value="/themes/hugo-relearn-theme" style="shape=partialRectangle;overflow=hidden;connectable=0;fillColor=none;top=0;left=0;bottom=0;right=0;align=left;spacingLeft=6;" vertex="1" parent="uD4EJLXwcY8p-qaZ7sZ1-16">
          <mxGeometry x="30" width="320" height="30" as="geometry">
            <mxRectangle width="320" height="30" as="alternateBounds" />
          </mxGeometry>
        </mxCell>
        <mxCell id="uD4EJLXwcY8p-qaZ7sZ1-24" value="" style="shape=partialRectangle;collapsible=0;dropTarget=0;pointerEvents=0;fillColor=none;points=[[0,0.5],[1,0.5]];portConstraint=eastwest;top=0;left=0;right=0;bottom=0;" vertex="1" parent="C-vyLk0tnHw3VtMMgP7b-13">
          <mxGeometry y="170" width="350" height="30" as="geometry" />
        </mxCell>
        <mxCell id="uD4EJLXwcY8p-qaZ7sZ1-25" value="d" style="shape=partialRectangle;overflow=hidden;connectable=0;fillColor=none;top=0;left=0;bottom=0;right=0;" vertex="1" parent="uD4EJLXwcY8p-qaZ7sZ1-24">
          <mxGeometry width="30" height="30" as="geometry">
            <mxRectangle width="30" height="30" as="alternateBounds" />
          </mxGeometry>
        </mxCell>
        <mxCell id="uD4EJLXwcY8p-qaZ7sZ1-26" value="/content" style="shape=partialRectangle;overflow=hidden;connectable=0;fillColor=none;top=0;left=0;bottom=0;right=0;align=left;spacingLeft=6;fontStyle=2" vertex="1" parent="uD4EJLXwcY8p-qaZ7sZ1-24">
          <mxGeometry x="30" width="320" height="30" as="geometry">
            <mxRectangle width="320" height="30" as="alternateBounds" />
          </mxGeometry>
        </mxCell>
        <mxCell id="uD4EJLXwcY8p-qaZ7sZ1-27" value="" style="shape=partialRectangle;collapsible=0;dropTarget=0;pointerEvents=0;fillColor=none;points=[[0,0.5],[1,0.5]];portConstraint=eastwest;top=0;left=0;right=0;bottom=0;" vertex="1" parent="C-vyLk0tnHw3VtMMgP7b-13">
          <mxGeometry y="200" width="350" height="30" as="geometry" />
        </mxCell>
        <mxCell id="uD4EJLXwcY8p-qaZ7sZ1-28" value="d" style="shape=partialRectangle;overflow=hidden;connectable=0;fillColor=none;top=0;left=0;bottom=0;right=0;" vertex="1" parent="uD4EJLXwcY8p-qaZ7sZ1-27">
          <mxGeometry width="30" height="30" as="geometry">
            <mxRectangle width="30" height="30" as="alternateBounds" />
          </mxGeometry>
        </mxCell>
        <mxCell id="uD4EJLXwcY8p-qaZ7sZ1-29" value="/public" style="shape=partialRectangle;overflow=hidden;connectable=0;fillColor=none;top=0;left=0;bottom=0;right=0;align=left;spacingLeft=6;fontStyle=2" vertex="1" parent="uD4EJLXwcY8p-qaZ7sZ1-27">
          <mxGeometry x="30" width="320" height="30" as="geometry">
            <mxRectangle width="320" height="30" as="alternateBounds" />
          </mxGeometry>
        </mxCell>
        <mxCell id="uD4EJLXwcY8p-qaZ7sZ1-30" value="" style="shape=partialRectangle;collapsible=0;dropTarget=0;pointerEvents=0;fillColor=none;points=[[0,0.5],[1,0.5]];portConstraint=eastwest;top=0;left=0;right=0;bottom=0;" vertex="1" parent="C-vyLk0tnHw3VtMMgP7b-13">
          <mxGeometry y="230" width="350" height="30" as="geometry" />
        </mxCell>
        <mxCell id="uD4EJLXwcY8p-qaZ7sZ1-31" value="f" style="shape=partialRectangle;overflow=hidden;connectable=0;fillColor=none;top=0;left=0;bottom=0;right=0;" vertex="1" parent="uD4EJLXwcY8p-qaZ7sZ1-30">
          <mxGeometry width="30" height="30" as="geometry">
            <mxRectangle width="30" height="30" as="alternateBounds" />
          </mxGeometry>
        </mxCell>
        <mxCell id="uD4EJLXwcY8p-qaZ7sZ1-32" value="/config.toml" style="shape=partialRectangle;overflow=hidden;connectable=0;fillColor=none;top=0;left=0;bottom=0;right=0;align=left;spacingLeft=6;fontStyle=2" vertex="1" parent="uD4EJLXwcY8p-qaZ7sZ1-30">
          <mxGeometry x="30" width="320" height="30" as="geometry">
            <mxRectangle width="320" height="30" as="alternateBounds" />
          </mxGeometry>
        </mxCell>
        <mxCell id="C-vyLk0tnHw3VtMMgP7b-23" value="myTECWkshp (local)" style="shape=table;startSize=30;container=1;collapsible=1;childLayout=tableLayout;fixedRows=1;rowLines=0;fontStyle=1;align=center;resizeLast=1;" parent="1" vertex="1">
          <mxGeometry x="230" y="420" width="250" height="190" as="geometry">
            <mxRectangle x="120" y="120" width="100" height="30" as="alternateBounds" />
          </mxGeometry>
        </mxCell>
        <mxCell id="C-vyLk0tnHw3VtMMgP7b-24" value="" style="shape=partialRectangle;collapsible=0;dropTarget=0;pointerEvents=0;fillColor=none;points=[[0,0.5],[1,0.5]];portConstraint=eastwest;top=0;left=0;right=0;bottom=1;" parent="C-vyLk0tnHw3VtMMgP7b-23" vertex="1">
          <mxGeometry y="30" width="250" height="30" as="geometry" />
        </mxCell>
        <mxCell id="C-vyLk0tnHw3VtMMgP7b-25" value="d" style="shape=partialRectangle;overflow=hidden;connectable=0;fillColor=none;top=0;left=0;bottom=0;right=0;fontStyle=1;" parent="C-vyLk0tnHw3VtMMgP7b-24" vertex="1">
          <mxGeometry width="30" height="30" as="geometry">
            <mxRectangle width="30" height="30" as="alternateBounds" />
          </mxGeometry>
        </mxCell>
        <mxCell id="C-vyLk0tnHw3VtMMgP7b-26" value="content " style="shape=partialRectangle;overflow=hidden;connectable=0;fillColor=none;top=0;left=0;bottom=0;right=0;align=left;spacingLeft=6;fontStyle=5;" parent="C-vyLk0tnHw3VtMMgP7b-24" vertex="1">
          <mxGeometry x="30" width="220" height="30" as="geometry">
            <mxRectangle width="220" height="30" as="alternateBounds" />
          </mxGeometry>
        </mxCell>
        <mxCell id="uD4EJLXwcY8p-qaZ7sZ1-7" value="" style="shape=partialRectangle;collapsible=0;dropTarget=0;pointerEvents=0;fillColor=none;points=[[0,0.5],[1,0.5]];portConstraint=eastwest;top=0;left=0;right=0;bottom=1;" vertex="1" parent="C-vyLk0tnHw3VtMMgP7b-23">
          <mxGeometry y="60" width="250" height="30" as="geometry" />
        </mxCell>
        <mxCell id="uD4EJLXwcY8p-qaZ7sZ1-8" value="d" style="shape=partialRectangle;overflow=hidden;connectable=0;fillColor=none;top=0;left=0;bottom=0;right=0;fontStyle=1;" vertex="1" parent="uD4EJLXwcY8p-qaZ7sZ1-7">
          <mxGeometry width="30" height="30" as="geometry">
            <mxRectangle width="30" height="30" as="alternateBounds" />
          </mxGeometry>
        </mxCell>
        <mxCell id="uD4EJLXwcY8p-qaZ7sZ1-9" value="scripts" style="shape=partialRectangle;overflow=hidden;connectable=0;fillColor=none;top=0;left=0;bottom=0;right=0;align=left;spacingLeft=6;fontStyle=5;" vertex="1" parent="uD4EJLXwcY8p-qaZ7sZ1-7">
          <mxGeometry x="30" width="220" height="30" as="geometry">
            <mxRectangle width="220" height="30" as="alternateBounds" />
          </mxGeometry>
        </mxCell>
        <mxCell id="uD4EJLXwcY8p-qaZ7sZ1-10" value="" style="shape=partialRectangle;collapsible=0;dropTarget=0;pointerEvents=0;fillColor=none;points=[[0,0.5],[1,0.5]];portConstraint=eastwest;top=0;left=0;right=0;bottom=1;" vertex="1" parent="C-vyLk0tnHw3VtMMgP7b-23">
          <mxGeometry y="90" width="250" height="30" as="geometry" />
        </mxCell>
        <mxCell id="uD4EJLXwcY8p-qaZ7sZ1-11" value="d" style="shape=partialRectangle;overflow=hidden;connectable=0;fillColor=none;top=0;left=0;bottom=0;right=0;fontStyle=1;" vertex="1" parent="uD4EJLXwcY8p-qaZ7sZ1-10">
          <mxGeometry width="30" height="30" as="geometry">
            <mxRectangle width="30" height="30" as="alternateBounds" />
          </mxGeometry>
        </mxCell>
        <mxCell id="uD4EJLXwcY8p-qaZ7sZ1-12" value="docs" style="shape=partialRectangle;overflow=hidden;connectable=0;fillColor=none;top=0;left=0;bottom=0;right=0;align=left;spacingLeft=6;fontStyle=5;" vertex="1" parent="uD4EJLXwcY8p-qaZ7sZ1-10">
          <mxGeometry x="30" width="220" height="30" as="geometry">
            <mxRectangle width="220" height="30" as="alternateBounds" />
          </mxGeometry>
        </mxCell>
        <mxCell id="uD4EJLXwcY8p-qaZ7sZ1-1" value="" style="shape=partialRectangle;collapsible=0;dropTarget=0;pointerEvents=0;fillColor=none;points=[[0,0.5],[1,0.5]];portConstraint=eastwest;top=0;left=0;right=0;bottom=0;" vertex="1" parent="C-vyLk0tnHw3VtMMgP7b-23">
          <mxGeometry y="120" width="250" height="30" as="geometry" />
        </mxCell>
        <mxCell id="uD4EJLXwcY8p-qaZ7sZ1-2" value="f" style="shape=partialRectangle;overflow=hidden;connectable=0;fillColor=none;top=0;left=0;bottom=0;right=0;" vertex="1" parent="uD4EJLXwcY8p-qaZ7sZ1-1">
          <mxGeometry width="30" height="30" as="geometry">
            <mxRectangle width="30" height="30" as="alternateBounds" />
          </mxGeometry>
        </mxCell>
        <mxCell id="uD4EJLXwcY8p-qaZ7sZ1-3" value="config.toml" style="shape=partialRectangle;overflow=hidden;connectable=0;fillColor=none;top=0;left=0;bottom=0;right=0;align=left;spacingLeft=6;" vertex="1" parent="uD4EJLXwcY8p-qaZ7sZ1-1">
          <mxGeometry x="30" width="220" height="30" as="geometry">
            <mxRectangle width="220" height="30" as="alternateBounds" />
          </mxGeometry>
        </mxCell>
        <mxCell id="uD4EJLXwcY8p-qaZ7sZ1-13" value="" style="shape=partialRectangle;collapsible=0;dropTarget=0;pointerEvents=0;fillColor=none;points=[[0,0.5],[1,0.5]];portConstraint=eastwest;top=0;left=0;right=0;bottom=0;" vertex="1" parent="C-vyLk0tnHw3VtMMgP7b-23">
          <mxGeometry y="150" width="250" height="30" as="geometry" />
        </mxCell>
        <mxCell id="uD4EJLXwcY8p-qaZ7sZ1-14" value="f" style="shape=partialRectangle;overflow=hidden;connectable=0;fillColor=none;top=0;left=0;bottom=0;right=0;" vertex="1" parent="uD4EJLXwcY8p-qaZ7sZ1-13">
          <mxGeometry width="30" height="30" as="geometry">
            <mxRectangle width="30" height="30" as="alternateBounds" />
          </mxGeometry>
        </mxCell>
        <mxCell id="uD4EJLXwcY8p-qaZ7sZ1-15" value="DockerfileContenCreation" style="shape=partialRectangle;overflow=hidden;connectable=0;fillColor=none;top=0;left=0;bottom=0;right=0;align=left;spacingLeft=6;" vertex="1" parent="uD4EJLXwcY8p-qaZ7sZ1-13">
          <mxGeometry x="30" width="220" height="30" as="geometry">
            <mxRectangle width="220" height="30" as="alternateBounds" />
          </mxGeometry>
        </mxCell>
        <mxCell id="uD4EJLXwcY8p-qaZ7sZ1-19" value="&lt;b&gt;GitHub Pages&lt;br&gt;https://fortinetcloudcse.github.io/myTECWkshp&lt;/b&gt;" style="ellipse;shape=cloud;whiteSpace=wrap;html=1;align=center;" vertex="1" parent="1">
          <mxGeometry x="20" y="610" width="430" height="210" as="geometry" />
        </mxCell>
        <mxCell id="uD4EJLXwcY8p-qaZ7sZ1-33" value="" style="endArrow=none;dashed=1;html=1;dashPattern=1 3;strokeWidth=2;rounded=0;entryX=0;entryY=0.5;entryDx=0;entryDy=0;exitX=1;exitY=0.5;exitDx=0;exitDy=0;" edge="1" parent="1" source="C-vyLk0tnHw3VtMMgP7b-24" target="uD4EJLXwcY8p-qaZ7sZ1-24">
          <mxGeometry width="50" height="50" relative="1" as="geometry">
            <mxPoint x="749" y="830" as="sourcePoint" />
            <mxPoint x="799" y="780" as="targetPoint" />
          </mxGeometry>
        </mxCell>
        <mxCell id="uD4EJLXwcY8p-qaZ7sZ1-34" value="" style="endArrow=none;dashed=1;html=1;dashPattern=1 3;strokeWidth=2;rounded=0;entryX=0;entryY=0.5;entryDx=0;entryDy=0;exitX=1;exitY=0.5;exitDx=0;exitDy=0;" edge="1" parent="1" source="uD4EJLXwcY8p-qaZ7sZ1-10" target="uD4EJLXwcY8p-qaZ7sZ1-27">
          <mxGeometry width="50" height="50" relative="1" as="geometry">
            <mxPoint x="519" y="395" as="sourcePoint" />
            <mxPoint x="569" y="395" as="targetPoint" />
          </mxGeometry>
        </mxCell>
        <mxCell id="uD4EJLXwcY8p-qaZ7sZ1-35" value="" style="endArrow=none;dashed=1;html=1;dashPattern=1 3;strokeWidth=2;rounded=0;entryX=0;entryY=0.5;entryDx=0;entryDy=0;exitX=1;exitY=0.5;exitDx=0;exitDy=0;" edge="1" parent="1" source="uD4EJLXwcY8p-qaZ7sZ1-1" target="uD4EJLXwcY8p-qaZ7sZ1-30">
          <mxGeometry width="50" height="50" relative="1" as="geometry">
            <mxPoint x="519" y="455" as="sourcePoint" />
            <mxPoint x="569" y="425" as="targetPoint" />
          </mxGeometry>
        </mxCell>
        <mxCell id="uD4EJLXwcY8p-qaZ7sZ1-39" value="" style="edgeStyle=orthogonalEdgeStyle;rounded=0;orthogonalLoop=1;jettySize=auto;html=1;" edge="1" parent="1" source="uD4EJLXwcY8p-qaZ7sZ1-37" target="uD4EJLXwcY8p-qaZ7sZ1-38">
          <mxGeometry relative="1" as="geometry" />
        </mxCell>
        <mxCell id="uD4EJLXwcY8p-qaZ7sZ1-41" value="" style="edgeStyle=orthogonalEdgeStyle;rounded=0;orthogonalLoop=1;jettySize=auto;html=1;" edge="1" parent="1" source="uD4EJLXwcY8p-qaZ7sZ1-37" target="uD4EJLXwcY8p-qaZ7sZ1-40">
          <mxGeometry relative="1" as="geometry" />
        </mxCell>
        <mxCell id="uD4EJLXwcY8p-qaZ7sZ1-37" value="1: Clone UserRepo &amp;gt; myTECWkshp" style="shape=step;perimeter=stepPerimeter;whiteSpace=wrap;html=1;fixedSize=1;" vertex="1" parent="1">
          <mxGeometry x="49" y="40" width="160" height="80" as="geometry" />
        </mxCell>
        <mxCell id="uD4EJLXwcY8p-qaZ7sZ1-51" value="" style="edgeStyle=orthogonalEdgeStyle;rounded=0;orthogonalLoop=1;jettySize=auto;html=1;" edge="1" parent="1" source="uD4EJLXwcY8p-qaZ7sZ1-38" target="uD4EJLXwcY8p-qaZ7sZ1-50">
          <mxGeometry relative="1" as="geometry" />
        </mxCell>
        <mxCell id="uD4EJLXwcY8p-qaZ7sZ1-38" value="2: Build Container" style="shape=step;perimeter=stepPerimeter;whiteSpace=wrap;html=1;fixedSize=1;" vertex="1" parent="1">
          <mxGeometry x="309" y="40" width="160" height="80" as="geometry" />
        </mxCell>
        <mxCell id="uD4EJLXwcY8p-qaZ7sZ1-40" value="&lt;ul&gt;&lt;li&gt;&lt;b&gt;content -&lt;/b&gt;&amp;nbsp;markdown pages&lt;/li&gt;&lt;li&gt;&lt;b&gt;scripts -&lt;/b&gt; docker cmd&lt;/li&gt;&lt;li&gt;&lt;b&gt;docs -&lt;/b&gt;&amp;nbsp;hugo built html&lt;/li&gt;&lt;li&gt;&lt;b&gt;config.toml - &lt;/b&gt;page frontmatter&lt;/li&gt;&lt;li&gt;&lt;b&gt;DockerFile&lt;/b&gt;&amp;nbsp;- docker build instructions&lt;/li&gt;&lt;/ul&gt;" style="whiteSpace=wrap;html=1;align=left;" vertex="1" parent="1">
          <mxGeometry x="6.5" y="180" width="245" height="100" as="geometry" />
        </mxCell>
        <mxCell id="uD4EJLXwcY8p-qaZ7sZ1-49" value="" style="edgeStyle=orthogonalEdgeStyle;rounded=0;orthogonalLoop=1;jettySize=auto;html=1;" edge="1" parent="1" source="uD4EJLXwcY8p-qaZ7sZ1-38" target="uD4EJLXwcY8p-qaZ7sZ1-48">
          <mxGeometry relative="1" as="geometry">
            <mxPoint x="469" y="220" as="sourcePoint" />
          </mxGeometry>
        </mxCell>
        <mxCell id="uD4EJLXwcY8p-qaZ7sZ1-48" value="&lt;b style=&quot;background-color: initial;&quot;&gt;- Hugo Install&lt;br&gt;- Central Repo:&lt;/b&gt;&lt;br&gt;&lt;ul style=&quot;&quot;&gt;&lt;li style=&quot;&quot;&gt;&lt;b style=&quot;font-weight: bold;&quot;&gt;layouts - &lt;/b&gt;Fortinet customizations&lt;/li&gt;&lt;li style=&quot;&quot;&gt;&lt;b style=&quot;border-color: var(--border-color);&quot;&gt;static - &lt;/b&gt;&lt;span style=&quot;border-color: var(--border-color);&quot;&gt;Fortinet customizations&lt;/span&gt;&lt;/li&gt;&lt;li style=&quot;&quot;&gt;&lt;b&gt;themes - &lt;/b&gt;Hugo reLearn theme&lt;/li&gt;&lt;/ul&gt;" style="whiteSpace=wrap;html=1;align=left;" vertex="1" parent="1">
          <mxGeometry x="279" y="180" width="220" height="120" as="geometry" />
        </mxCell>
        <mxCell id="uD4EJLXwcY8p-qaZ7sZ1-53" value="" style="edgeStyle=orthogonalEdgeStyle;rounded=0;orthogonalLoop=1;jettySize=auto;html=1;" edge="1" parent="1" source="uD4EJLXwcY8p-qaZ7sZ1-50" target="uD4EJLXwcY8p-qaZ7sZ1-52">
          <mxGeometry relative="1" as="geometry" />
        </mxCell>
        <mxCell id="uD4EJLXwcY8p-qaZ7sZ1-55" value="" style="edgeStyle=orthogonalEdgeStyle;rounded=0;orthogonalLoop=1;jettySize=auto;html=1;" edge="1" parent="1" source="uD4EJLXwcY8p-qaZ7sZ1-50" target="uD4EJLXwcY8p-qaZ7sZ1-54">
          <mxGeometry relative="1" as="geometry" />
        </mxCell>
        <mxCell id="uD4EJLXwcY8p-qaZ7sZ1-50" value="3: Run Container" style="shape=step;perimeter=stepPerimeter;whiteSpace=wrap;html=1;fixedSize=1;" vertex="1" parent="1">
          <mxGeometry x="554" y="40" width="160" height="80" as="geometry" />
        </mxCell>
        <mxCell id="uD4EJLXwcY8p-qaZ7sZ1-52" value="&lt;span style=&quot;background-color: initial;&quot;&gt;- &lt;b&gt;interactive CLI login&lt;/b&gt;&lt;/span&gt;&lt;br&gt;&lt;b&gt;- disk mounts&lt;/b&gt;&lt;br&gt;&lt;ul style=&quot;font-weight: bold;&quot;&gt;&lt;li&gt;&lt;b&gt;content:content&lt;/b&gt;&lt;/li&gt;&lt;li&gt;&lt;b&gt;docs:public&lt;/b&gt;&lt;/li&gt;&lt;li&gt;&lt;b&gt;config.toml:config/toml&lt;/b&gt;&lt;/li&gt;&lt;/ul&gt;&lt;b&gt;- public port 1313 to local OS&lt;br&gt;&lt;/b&gt;" style="whiteSpace=wrap;html=1;align=left;" vertex="1" parent="1">
          <mxGeometry x="539" y="180" width="190" height="120" as="geometry" />
        </mxCell>
        <mxCell id="uD4EJLXwcY8p-qaZ7sZ1-57" value="" style="edgeStyle=orthogonalEdgeStyle;rounded=0;orthogonalLoop=1;jettySize=auto;html=1;" edge="1" parent="1" source="uD4EJLXwcY8p-qaZ7sZ1-54" target="uD4EJLXwcY8p-qaZ7sZ1-56">
          <mxGeometry relative="1" as="geometry" />
        </mxCell>
        <mxCell id="uD4EJLXwcY8p-qaZ7sZ1-61" value="" style="edgeStyle=orthogonalEdgeStyle;rounded=0;orthogonalLoop=1;jettySize=auto;html=1;" edge="1" parent="1" source="uD4EJLXwcY8p-qaZ7sZ1-54" target="uD4EJLXwcY8p-qaZ7sZ1-60">
          <mxGeometry relative="1" as="geometry" />
        </mxCell>
        <mxCell id="uD4EJLXwcY8p-qaZ7sZ1-54" value="4: Hugo: &lt;br&gt;Content creation &lt;br&gt;+ build" style="shape=step;perimeter=stepPerimeter;whiteSpace=wrap;html=1;fixedSize=1;" vertex="1" parent="1">
          <mxGeometry x="756.5" y="40" width="160" height="80" as="geometry" />
        </mxCell>
        <mxCell id="uD4EJLXwcY8p-qaZ7sZ1-56" value="-&lt;b&gt; Create Hugo Content&lt;br&gt;- Hugo build (public: docs)&lt;br&gt;&lt;/b&gt;" style="whiteSpace=wrap;html=1;align=left;" vertex="1" parent="1">
          <mxGeometry x="749" y="180" width="175" height="60" as="geometry" />
        </mxCell>
        <mxCell id="uD4EJLXwcY8p-qaZ7sZ1-63" value="" style="edgeStyle=orthogonalEdgeStyle;rounded=0;orthogonalLoop=1;jettySize=auto;html=1;" edge="1" parent="1" source="uD4EJLXwcY8p-qaZ7sZ1-60" target="uD4EJLXwcY8p-qaZ7sZ1-62">
          <mxGeometry relative="1" as="geometry" />
        </mxCell>
        <mxCell id="uD4EJLXwcY8p-qaZ7sZ1-60" value="5: GitHub Push&lt;br style=&quot;border-color: var(--border-color);&quot;&gt;(auto publish &lt;br&gt;to GH pages)" style="shape=step;perimeter=stepPerimeter;whiteSpace=wrap;html=1;fixedSize=1;" vertex="1" parent="1">
          <mxGeometry x="939" y="40" width="160" height="80" as="geometry" />
        </mxCell>
        <mxCell id="uD4EJLXwcY8p-qaZ7sZ1-62" value="&lt;b&gt;- Git push&lt;br&gt;- GitHub Action &amp;gt; auto publishes /docs folder&lt;br&gt;&lt;/b&gt;" style="whiteSpace=wrap;html=1;align=left;" vertex="1" parent="1">
          <mxGeometry x="959" y="180" width="120" height="60" as="geometry" />
        </mxCell>
        <mxCell id="uD4EJLXwcY8p-qaZ7sZ1-64" value="" style="curved=1;endArrow=classic;html=1;rounded=0;exitX=0;exitY=0.5;exitDx=0;exitDy=0;entryX=0.25;entryY=0.25;entryDx=0;entryDy=0;entryPerimeter=0;strokeWidth=6;" edge="1" parent="1" source="uD4EJLXwcY8p-qaZ7sZ1-10" target="uD4EJLXwcY8p-qaZ7sZ1-19">
          <mxGeometry width="50" height="50" relative="1" as="geometry">
            <mxPoint x="520" y="510" as="sourcePoint" />
            <mxPoint x="570" y="460" as="targetPoint" />
            <Array as="points">
              <mxPoint x="150" y="530" />
              <mxPoint x="100" y="570" />
            </Array>
          </mxGeometry>
        </mxCell>
      </root>
    </mxGraphModel>
  </diagram>
</mxfile>
